<svg width="70" height="70" viewBox="0 0 70 70" fill="none" xmlns="http://www.w3.org/2000/svg">
<circle cx="35" cy="35" r="35" fill="#1B8F7A"/>
<path d="M55.1646 28.9634L37.4255 46.7025C35.3305 48.7975 31.9024 48.7975 29.8075 46.7025L12.0684 28.9634" stroke="#1B8F7A" stroke-width="1.5" stroke-miterlimit="10" stroke-linecap="round" stroke-linejoin="round"/>
<path d="M22 40.8159H33.9048" stroke="white" stroke-width="1.5" stroke-miterlimit="10" stroke-linecap="round" stroke-linejoin="round"/>
<path d="M45.8095 38.2419C45.8095 43.077 42.0833 46.9875 37.4762 46.9875L38.7262 44.8011M22 30.7456C22 25.9105 25.7262 22 30.3333 22L29.0833 24.1864M24.6429 36.3678H31.2619C33.381 36.3678 33.9048 36.9175 33.9048 39.1164V44.2514C33.9048 46.4503 33.381 47 31.2619 47H24.6429C22.5238 47 22 46.4503 22 44.2514V39.1164C22 36.9175 22.5238 36.3678 24.6429 36.3678ZM41.6429 33.2444C42.3464 33.2444 43.043 33.099 43.6929 32.8164C44.3429 32.5339 44.9335 32.1197 45.4309 31.5977C45.9284 31.0756 46.323 30.4558 46.5922 29.7737C46.8614 29.0916 47 28.3605 47 27.6222C47 26.8839 46.8614 26.1528 46.5922 25.4707C46.323 24.7886 45.9284 24.1688 45.4309 23.6467C44.9335 23.1246 44.3429 22.7105 43.6929 22.428C43.043 22.1454 42.3464 22 41.6429 22C40.2221 22 38.8594 22.5923 37.8548 23.6467C36.8501 24.7011 36.2857 26.1311 36.2857 27.6222C36.2857 29.1133 36.8501 30.5433 37.8548 31.5977C38.8594 32.652 40.2221 33.2444 41.6429 33.2444V33.2444Z" stroke="white" stroke-width="1.5" stroke-linecap="round" stroke-linejoin="round"/>
</svg>
