<svg width="70" height="70" viewBox="0 0 70 70" fill="none" xmlns="http://www.w3.org/2000/svg">
<circle cx="35" cy="35" r="35" fill="#1B8F7A"/>
<path d="M36.6846 29.02H30.1037C27.7811 29.02 27.2566 30.1813 26.9694 31.6174L25.908 36.6748H40.8928L39.8314 31.6174C39.5192 30.1813 39.0072 29.02 36.6846 29.02V29.02Z" stroke="white" stroke-width="1.5" stroke-linecap="round" stroke-linejoin="round"/>
<path d="M25.8952 33.863H24.9587M41.8166 33.863H40.8801M27.7683 40.4189H30.578M36.1973 40.4189H39.007M44.8885 30.4165C45.2381 29.6048 45.1133 28.5059 44.4639 27.5444C43.8271 26.5829 42.8531 26.0459 41.9665 26.0584M48.7721 31.6527C49.2965 29.7671 48.9219 27.457 47.5858 25.459C46.2496 23.461 44.2516 22.2373 42.3036 22M42.7407 44.9268C42.8406 46.0257 41.9665 46.9747 40.8426 46.9747H39.0819C38.0704 46.9747 37.933 46.5377 37.7457 46.0132L37.5584 45.4513C37.2962 44.6896 37.1214 44.1651 35.7727 44.1651H30.9776C29.6289 44.1651 29.4291 44.752 29.1919 45.4513L29.0046 46.0132C28.8297 46.5502 28.6924 46.9747 27.6684 46.9747H25.9077C24.7838 46.9747 23.8972 46.0257 24.0096 44.9268L24.5341 39.2201C24.6715 37.809 24.9337 36.6602 27.3937 36.6602H39.3441C41.8041 36.6602 42.0664 37.809 42.2037 39.2201L42.7407 44.9268Z" stroke="white" stroke-width="1.5" stroke-linecap="round" stroke-linejoin="round"/>
</svg>
