<svg width="29" height="29" viewBox="0 0 29 29" fill="none" xmlns="http://www.w3.org/2000/svg">
<circle cx="14.5" cy="14.5" r="14.5" fill="#1B8F7A"/>
<path d="M15.5 12.975V15.15H17.45C17.6 15.15 17.675 15.3 17.675 15.45L17.375 16.875C17.375 16.95 17.225 17.025 17.15 17.025H15.5V22.5H13.25V17.1H11.975C11.825 17.1 11.75 17.025 11.75 16.875V15.45C11.75 15.3 11.825 15.225 11.975 15.225H13.25V12.75C13.25 11.475 14.225 10.5 15.5 10.5H17.525C17.675 10.5 17.75 10.575 17.75 10.725V12.525C17.75 12.675 17.675 12.75 17.525 12.75H15.725C15.575 12.75 15.5 12.825 15.5 12.975V12.975Z" stroke="white" stroke-width="1.5" stroke-miterlimit="10" stroke-linecap="round"/>
<path d="M16.25 22.5H11.75C8 22.5 6.5 21 6.5 17.25V12.75C6.5 9 8 7.5 11.75 7.5H16.25C20 7.5 21.5 9 21.5 12.75V17.25C21.5 21 20 22.5 16.25 22.5Z" stroke="white" stroke-width="1.5" stroke-linecap="round" stroke-linejoin="round"/>
</svg>
