<svg width="484" height="661" viewBox="0 0 484 661" fill="none" xmlns="http://www.w3.org/2000/svg">
<path d="M0 661V0H483.753C483.753 276.5 484.309 276 483.753 661H0Z" fill="#40C1AA" fill-opacity="0.38"/>
<rect x="99" y="517" width="95" height="38" rx="19" fill="#1B8F7A"/>
<path d="M129.799 537.85L128.567 538.704C128.782 539.152 129.071 539.567 129.435 539.95C129.799 540.333 130.224 540.641 130.709 540.874C131.204 541.098 131.741 541.21 132.319 541.21C132.739 541.21 133.141 541.14 133.523 541C133.915 540.869 134.265 540.683 134.573 540.44C134.881 540.188 135.124 539.88 135.301 539.516C135.479 539.152 135.567 538.741 135.567 538.284C135.567 537.855 135.493 537.481 135.343 537.164C135.203 536.847 135.012 536.571 134.769 536.338C134.527 536.095 134.256 535.895 133.957 535.736C133.668 535.577 133.379 535.447 133.089 535.344C132.567 535.157 132.142 534.975 131.815 534.798C131.489 534.621 131.246 534.434 131.087 534.238C130.938 534.033 130.863 533.804 130.863 533.552C130.863 533.272 130.971 533.029 131.185 532.824C131.4 532.609 131.736 532.502 132.193 532.502C132.52 532.502 132.805 532.567 133.047 532.698C133.299 532.819 133.519 532.987 133.705 533.202C133.892 533.407 134.046 533.631 134.167 533.874L135.511 533.118C135.343 532.773 135.11 532.441 134.811 532.124C134.522 531.807 134.163 531.545 133.733 531.34C133.304 531.135 132.8 531.032 132.221 531.032C131.633 531.032 131.106 531.144 130.639 531.368C130.182 531.583 129.818 531.891 129.547 532.292C129.277 532.684 129.141 533.141 129.141 533.664C129.141 534.121 129.23 534.513 129.407 534.84C129.585 535.157 129.809 535.428 130.079 535.652C130.35 535.867 130.635 536.049 130.933 536.198C131.232 536.338 131.503 536.45 131.745 536.534C132.156 536.683 132.515 536.837 132.823 536.996C133.141 537.145 133.388 537.332 133.565 537.556C133.743 537.771 133.831 538.06 133.831 538.424C133.831 538.807 133.691 539.119 133.411 539.362C133.131 539.605 132.767 539.726 132.319 539.726C131.946 539.726 131.61 539.651 131.311 539.502C131.013 539.343 130.737 539.124 130.485 538.844C130.243 538.555 130.014 538.223 129.799 537.85ZM138.285 541H143.227V539.544H138.285V541ZM138.285 532.656H143.227V531.2H138.285V532.656ZM138.285 536.464H142.947V535.036H138.285V536.464ZM137.263 531.2V541H138.887V531.2H137.263ZM152.415 531.2V537.78L145.261 530.71V541H146.885V534.42L154.039 541.49V531.2H152.415ZM156.212 531.2V541H157.892V531.2H156.212ZM159.376 541C160.375 541 161.252 540.799 162.008 540.398C162.764 539.987 163.352 539.418 163.772 538.69C164.201 537.953 164.416 537.089 164.416 536.1C164.416 535.111 164.201 534.252 163.772 533.524C163.352 532.787 162.764 532.217 162.008 531.816C161.252 531.405 160.375 531.2 159.376 531.2H157.234V532.754H159.334C159.819 532.754 160.267 532.824 160.678 532.964C161.089 533.104 161.443 533.314 161.742 533.594C162.05 533.874 162.288 534.224 162.456 534.644C162.633 535.064 162.722 535.549 162.722 536.1C162.722 536.651 162.633 537.136 162.456 537.556C162.288 537.976 162.05 538.326 161.742 538.606C161.443 538.886 161.089 539.096 160.678 539.236C160.267 539.376 159.819 539.446 159.334 539.446H157.234V541H159.376Z" fill="white"/>
<rect x="99" y="406" width="287" height="79" rx="2" fill="white"/>
<path d="M131.06 419.928V431H129.604V422.744L125.924 431H124.9L121.204 422.728V431H119.748V419.928H121.316L125.412 429.08L129.508 419.928H131.06ZM141.529 426.28C141.529 426.557 141.513 426.851 141.481 427.16H134.473C134.526 428.024 134.82 428.701 135.353 429.192C135.897 429.672 136.553 429.912 137.321 429.912C137.95 429.912 138.473 429.768 138.889 429.48C139.316 429.181 139.614 428.787 139.785 428.296H141.353C141.118 429.139 140.649 429.827 139.945 430.36C139.241 430.883 138.366 431.144 137.321 431.144C136.489 431.144 135.742 430.957 135.081 430.584C134.43 430.211 133.918 429.683 133.545 429C133.172 428.307 132.985 427.507 132.985 426.6C132.985 425.693 133.166 424.899 133.529 424.216C133.892 423.533 134.398 423.011 135.049 422.648C135.71 422.275 136.468 422.088 137.321 422.088C138.153 422.088 138.889 422.269 139.529 422.632C140.169 422.995 140.66 423.496 141.001 424.136C141.353 424.765 141.529 425.48 141.529 426.28ZM140.025 425.976C140.025 425.421 139.902 424.947 139.657 424.552C139.412 424.147 139.076 423.843 138.649 423.64C138.233 423.427 137.769 423.32 137.257 423.32C136.521 423.32 135.892 423.555 135.369 424.024C134.857 424.493 134.564 425.144 134.489 425.976H140.025ZM146.555 431.144C145.883 431.144 145.28 431.032 144.747 430.808C144.213 430.573 143.792 430.253 143.483 429.848C143.173 429.432 143.003 428.957 142.971 428.424H144.475C144.517 428.861 144.72 429.219 145.083 429.496C145.456 429.773 145.941 429.912 146.539 429.912C147.093 429.912 147.531 429.789 147.851 429.544C148.171 429.299 148.331 428.989 148.331 428.616C148.331 428.232 148.16 427.949 147.819 427.768C147.477 427.576 146.949 427.389 146.235 427.208C145.584 427.037 145.051 426.867 144.635 426.696C144.229 426.515 143.877 426.253 143.579 425.912C143.291 425.56 143.147 425.101 143.147 424.536C143.147 424.088 143.28 423.677 143.547 423.304C143.813 422.931 144.192 422.637 144.683 422.424C145.173 422.2 145.733 422.088 146.363 422.088C147.333 422.088 148.117 422.333 148.715 422.824C149.312 423.315 149.632 423.987 149.675 424.84H148.219C148.187 424.381 148 424.013 147.659 423.736C147.328 423.459 146.88 423.32 146.315 423.32C145.792 423.32 145.376 423.432 145.067 423.656C144.757 423.88 144.603 424.173 144.603 424.536C144.603 424.824 144.693 425.064 144.875 425.256C145.067 425.437 145.301 425.587 145.579 425.704C145.867 425.811 146.261 425.933 146.763 426.072C147.392 426.243 147.904 426.413 148.299 426.584C148.693 426.744 149.029 426.989 149.307 427.32C149.595 427.651 149.744 428.083 149.755 428.616C149.755 429.096 149.621 429.528 149.355 429.912C149.088 430.296 148.709 430.6 148.219 430.824C147.739 431.037 147.184 431.144 146.555 431.144ZM154.914 431.144C154.242 431.144 153.639 431.032 153.106 430.808C152.573 430.573 152.151 430.253 151.842 429.848C151.533 429.432 151.362 428.957 151.33 428.424H152.834C152.877 428.861 153.079 429.219 153.442 429.496C153.815 429.773 154.301 429.912 154.898 429.912C155.453 429.912 155.89 429.789 156.21 429.544C156.53 429.299 156.69 428.989 156.69 428.616C156.69 428.232 156.519 427.949 156.178 427.768C155.837 427.576 155.309 427.389 154.594 427.208C153.943 427.037 153.41 426.867 152.994 426.696C152.589 426.515 152.237 426.253 151.938 425.912C151.65 425.56 151.506 425.101 151.506 424.536C151.506 424.088 151.639 423.677 151.906 423.304C152.173 422.931 152.551 422.637 153.042 422.424C153.533 422.2 154.093 422.088 154.722 422.088C155.693 422.088 156.477 422.333 157.074 422.824C157.671 423.315 157.991 423.987 158.034 424.84H156.578C156.546 424.381 156.359 424.013 156.018 423.736C155.687 423.459 155.239 423.32 154.674 423.32C154.151 423.32 153.735 423.432 153.426 423.656C153.117 423.88 152.962 424.173 152.962 424.536C152.962 424.824 153.053 425.064 153.234 425.256C153.426 425.437 153.661 425.587 153.938 425.704C154.226 425.811 154.621 425.933 155.122 426.072C155.751 426.243 156.263 426.413 156.658 426.584C157.053 426.744 157.389 426.989 157.666 427.32C157.954 427.651 158.103 428.083 158.114 428.616C158.114 429.096 157.981 429.528 157.714 429.912C157.447 430.296 157.069 430.6 156.578 430.824C156.098 431.037 155.543 431.144 154.914 431.144ZM159.626 426.584C159.626 425.688 159.807 424.904 160.17 424.232C160.532 423.549 161.028 423.021 161.658 422.648C162.298 422.275 163.007 422.088 163.786 422.088C164.554 422.088 165.22 422.253 165.786 422.584C166.351 422.915 166.772 423.331 167.05 423.832V422.232H168.522V431H167.05V429.368C166.762 429.88 166.33 430.307 165.754 430.648C165.188 430.979 164.527 431.144 163.77 431.144C162.991 431.144 162.287 430.952 161.658 430.568C161.028 430.184 160.532 429.645 160.17 428.952C159.807 428.259 159.626 427.469 159.626 426.584ZM167.05 426.6C167.05 425.939 166.916 425.363 166.65 424.872C166.383 424.381 166.02 424.008 165.562 423.752C165.114 423.485 164.618 423.352 164.074 423.352C163.53 423.352 163.034 423.48 162.586 423.736C162.138 423.992 161.78 424.365 161.514 424.856C161.247 425.347 161.114 425.923 161.114 426.584C161.114 427.256 161.247 427.843 161.514 428.344C161.78 428.835 162.138 429.213 162.586 429.48C163.034 429.736 163.53 429.864 164.074 429.864C164.618 429.864 165.114 429.736 165.562 429.48C166.02 429.213 166.383 428.835 166.65 428.344C166.916 427.843 167.05 427.261 167.05 426.6ZM174.598 422.088C175.355 422.088 176.017 422.253 176.582 422.584C177.158 422.915 177.585 423.331 177.862 423.832V422.232H179.334V431.192C179.334 431.992 179.163 432.701 178.822 433.32C178.481 433.949 177.99 434.44 177.35 434.792C176.721 435.144 175.985 435.32 175.142 435.32C173.99 435.32 173.03 435.048 172.262 434.504C171.494 433.96 171.041 433.219 170.902 432.28H172.342C172.502 432.813 172.833 433.24 173.334 433.56C173.835 433.891 174.438 434.056 175.142 434.056C175.942 434.056 176.593 433.805 177.094 433.304C177.606 432.803 177.862 432.099 177.862 431.192V429.352C177.574 429.864 177.147 430.291 176.582 430.632C176.017 430.973 175.355 431.144 174.598 431.144C173.819 431.144 173.11 430.952 172.47 430.568C171.841 430.184 171.345 429.645 170.982 428.952C170.619 428.259 170.438 427.469 170.438 426.584C170.438 425.688 170.619 424.904 170.982 424.232C171.345 423.549 171.841 423.021 172.47 422.648C173.11 422.275 173.819 422.088 174.598 422.088ZM177.862 426.6C177.862 425.939 177.729 425.363 177.462 424.872C177.195 424.381 176.833 424.008 176.374 423.752C175.926 423.485 175.43 423.352 174.886 423.352C174.342 423.352 173.846 423.48 173.398 423.736C172.95 423.992 172.593 424.365 172.326 424.856C172.059 425.347 171.926 425.923 171.926 426.584C171.926 427.256 172.059 427.843 172.326 428.344C172.593 428.835 172.95 429.213 173.398 429.48C173.846 429.736 174.342 429.864 174.886 429.864C175.43 429.864 175.926 429.736 176.374 429.48C176.833 429.213 177.195 428.835 177.462 428.344C177.729 427.843 177.862 427.261 177.862 426.6ZM189.795 426.28C189.795 426.557 189.779 426.851 189.747 427.16H182.739C182.792 428.024 183.085 428.701 183.619 429.192C184.163 429.672 184.819 429.912 185.587 429.912C186.216 429.912 186.739 429.768 187.155 429.48C187.581 429.181 187.88 428.787 188.051 428.296H189.619C189.384 429.139 188.915 429.827 188.211 430.36C187.507 430.883 186.632 431.144 185.587 431.144C184.755 431.144 184.008 430.957 183.347 430.584C182.696 430.211 182.184 429.683 181.811 429C181.437 428.307 181.251 427.507 181.251 426.6C181.251 425.693 181.432 424.899 181.795 424.216C182.157 423.533 182.664 423.011 183.315 422.648C183.976 422.275 184.733 422.088 185.587 422.088C186.419 422.088 187.155 422.269 187.795 422.632C188.435 422.995 188.925 423.496 189.267 424.136C189.619 424.765 189.795 425.48 189.795 426.28ZM188.291 425.976C188.291 425.421 188.168 424.947 187.923 424.552C187.677 424.147 187.341 423.843 186.915 423.64C186.499 423.427 186.035 423.32 185.523 423.32C184.787 423.32 184.157 423.555 183.635 424.024C183.123 424.493 182.829 425.144 182.755 425.976H188.291Z" fill="#565959"/>
<rect x="99" y="353" width="287" height="35" rx="2" fill="white"/>
<path d="M125.518 364.848L121.31 376H119.63L115.422 364.848H116.974L120.478 374.464L123.982 364.848H125.518ZM135.115 371.28C135.115 371.557 135.099 371.851 135.067 372.16H128.059C128.112 373.024 128.405 373.701 128.939 374.192C129.483 374.672 130.139 374.912 130.907 374.912C131.536 374.912 132.059 374.768 132.475 374.48C132.901 374.181 133.2 373.787 133.371 373.296H134.939C134.704 374.139 134.235 374.827 133.531 375.36C132.827 375.883 131.952 376.144 130.907 376.144C130.075 376.144 129.328 375.957 128.667 375.584C128.016 375.211 127.504 374.683 127.131 374C126.757 373.307 126.571 372.507 126.571 371.6C126.571 370.693 126.752 369.899 127.115 369.216C127.477 368.533 127.984 368.011 128.635 367.648C129.296 367.275 130.053 367.088 130.907 367.088C131.739 367.088 132.475 367.269 133.115 367.632C133.755 367.995 134.245 368.496 134.587 369.136C134.939 369.765 135.115 370.48 135.115 371.28ZM133.611 370.976C133.611 370.421 133.488 369.947 133.243 369.552C132.997 369.147 132.661 368.843 132.235 368.64C131.819 368.427 131.355 368.32 130.843 368.32C130.107 368.32 129.477 368.555 128.955 369.024C128.443 369.493 128.149 370.144 128.075 370.976H133.611ZM141.389 367.072C142.05 367.072 142.647 367.216 143.181 367.504C143.714 367.781 144.13 368.203 144.429 368.768C144.738 369.333 144.893 370.021 144.893 370.832V376H143.453V371.04C143.453 370.165 143.234 369.499 142.797 369.04C142.359 368.571 141.762 368.336 141.005 368.336C140.237 368.336 139.623 368.576 139.165 369.056C138.717 369.536 138.493 370.235 138.493 371.152V376H137.037V364.16H138.493V368.48C138.781 368.032 139.175 367.685 139.677 367.44C140.189 367.195 140.759 367.072 141.389 367.072ZM148.023 365.808C147.746 365.808 147.511 365.712 147.319 365.52C147.127 365.328 147.031 365.093 147.031 364.816C147.031 364.539 147.127 364.304 147.319 364.112C147.511 363.92 147.746 363.824 148.023 363.824C148.29 363.824 148.514 363.92 148.695 364.112C148.887 364.304 148.983 364.539 148.983 364.816C148.983 365.093 148.887 365.328 148.695 365.52C148.514 365.712 148.29 365.808 148.023 365.808ZM148.727 367.232V376H147.271V367.232H148.727ZM150.665 371.6C150.665 370.693 150.846 369.904 151.209 369.232C151.571 368.549 152.073 368.021 152.713 367.648C153.363 367.275 154.105 367.088 154.937 367.088C156.014 367.088 156.899 367.349 157.593 367.872C158.297 368.395 158.761 369.12 158.985 370.048H157.417C157.267 369.515 156.974 369.093 156.537 368.784C156.11 368.475 155.577 368.32 154.937 368.32C154.105 368.32 153.433 368.608 152.921 369.184C152.409 369.749 152.153 370.555 152.153 371.6C152.153 372.656 152.409 373.472 152.921 374.048C153.433 374.624 154.105 374.912 154.937 374.912C155.577 374.912 156.11 374.763 156.537 374.464C156.963 374.165 157.257 373.739 157.417 373.184H158.985C158.75 374.08 158.281 374.8 157.577 375.344C156.873 375.877 155.993 376.144 154.937 376.144C154.105 376.144 153.363 375.957 152.713 375.584C152.073 375.211 151.571 374.683 151.209 374C150.846 373.317 150.665 372.517 150.665 371.6ZM162.383 364.16V376H160.927V364.16H162.383ZM172.865 371.28C172.865 371.557 172.849 371.851 172.817 372.16H165.809C165.862 373.024 166.155 373.701 166.689 374.192C167.233 374.672 167.889 374.912 168.657 374.912C169.286 374.912 169.809 374.768 170.225 374.48C170.651 374.181 170.95 373.787 171.121 373.296H172.689C172.454 374.139 171.985 374.827 171.281 375.36C170.577 375.883 169.702 376.144 168.657 376.144C167.825 376.144 167.078 375.957 166.417 375.584C165.766 375.211 165.254 374.683 164.881 374C164.507 373.307 164.321 372.507 164.321 371.6C164.321 370.693 164.502 369.899 164.865 369.216C165.227 368.533 165.734 368.011 166.385 367.648C167.046 367.275 167.803 367.088 168.657 367.088C169.489 367.088 170.225 367.269 170.865 367.632C171.505 367.995 171.995 368.496 172.337 369.136C172.689 369.765 172.865 370.48 172.865 371.28ZM171.361 370.976C171.361 370.421 171.238 369.947 170.993 369.552C170.747 369.147 170.411 368.843 169.985 368.64C169.569 368.427 169.105 368.32 168.593 368.32C167.857 368.32 167.227 368.555 166.705 369.024C166.193 369.493 165.899 370.144 165.825 370.976H171.361ZM182.524 364.848C183.74 364.848 184.791 365.077 185.676 365.536C186.572 365.984 187.255 366.629 187.724 367.472C188.204 368.315 188.444 369.307 188.444 370.448C188.444 371.589 188.204 372.581 187.724 373.424C187.255 374.256 186.572 374.896 185.676 375.344C184.791 375.781 183.74 376 182.524 376H179.052V364.848H182.524ZM182.524 374.8C183.964 374.8 185.063 374.421 185.82 373.664C186.578 372.896 186.956 371.824 186.956 370.448C186.956 369.061 186.572 367.979 185.804 367.2C185.047 366.421 183.954 366.032 182.524 366.032H180.508V374.8H182.524ZM198.365 371.28C198.365 371.557 198.349 371.851 198.317 372.16H191.309C191.362 373.024 191.655 373.701 192.189 374.192C192.733 374.672 193.389 374.912 194.157 374.912C194.786 374.912 195.309 374.768 195.725 374.48C196.151 374.181 196.45 373.787 196.621 373.296H198.189C197.954 374.139 197.485 374.827 196.781 375.36C196.077 375.883 195.202 376.144 194.157 376.144C193.325 376.144 192.578 375.957 191.917 375.584C191.266 375.211 190.754 374.683 190.381 374C190.007 373.307 189.821 372.507 189.821 371.6C189.821 370.693 190.002 369.899 190.365 369.216C190.727 368.533 191.234 368.011 191.885 367.648C192.546 367.275 193.303 367.088 194.157 367.088C194.989 367.088 195.725 367.269 196.365 367.632C197.005 367.995 197.495 368.496 197.837 369.136C198.189 369.765 198.365 370.48 198.365 371.28ZM196.861 370.976C196.861 370.421 196.738 369.947 196.493 369.552C196.247 369.147 195.911 368.843 195.485 368.64C195.069 368.427 194.605 368.32 194.093 368.32C193.357 368.32 192.727 368.555 192.205 369.024C191.693 369.493 191.399 370.144 191.325 370.976H196.861ZM202.063 368.432V373.6C202.063 374.027 202.153 374.331 202.335 374.512C202.516 374.683 202.831 374.768 203.279 374.768H204.351V376H203.039C202.228 376 201.62 375.813 201.215 375.44C200.809 375.067 200.607 374.453 200.607 373.6V368.432H199.471V367.232H200.607V365.024H202.063V367.232H204.351V368.432H202.063ZM205.571 371.584C205.571 370.688 205.752 369.904 206.115 369.232C206.477 368.549 206.973 368.021 207.603 367.648C208.243 367.275 208.952 367.088 209.731 367.088C210.499 367.088 211.165 367.253 211.731 367.584C212.296 367.915 212.717 368.331 212.995 368.832V367.232H214.467V376H212.995V374.368C212.707 374.88 212.275 375.307 211.699 375.648C211.133 375.979 210.472 376.144 209.715 376.144C208.936 376.144 208.232 375.952 207.603 375.568C206.973 375.184 206.477 374.645 206.115 373.952C205.752 373.259 205.571 372.469 205.571 371.584ZM212.995 371.6C212.995 370.939 212.861 370.363 212.595 369.872C212.328 369.381 211.965 369.008 211.507 368.752C211.059 368.485 210.563 368.352 210.019 368.352C209.475 368.352 208.979 368.48 208.531 368.736C208.083 368.992 207.725 369.365 207.459 369.856C207.192 370.347 207.059 370.923 207.059 371.584C207.059 372.256 207.192 372.843 207.459 373.344C207.725 373.835 208.083 374.213 208.531 374.48C208.979 374.736 209.475 374.864 210.019 374.864C210.563 374.864 211.059 374.736 211.507 374.48C211.965 374.213 212.328 373.835 212.595 373.344C212.861 372.843 212.995 372.261 212.995 371.6ZM217.679 365.808C217.402 365.808 217.167 365.712 216.975 365.52C216.783 365.328 216.687 365.093 216.687 364.816C216.687 364.539 216.783 364.304 216.975 364.112C217.167 363.92 217.402 363.824 217.679 363.824C217.946 363.824 218.17 363.92 218.351 364.112C218.543 364.304 218.639 364.539 218.639 364.816C218.639 365.093 218.543 365.328 218.351 365.52C218.17 365.712 217.946 365.808 217.679 365.808ZM218.383 367.232V376H216.927V367.232H218.383ZM222.321 364.16V376H220.865V364.16H222.321ZM227.906 376.144C227.234 376.144 226.632 376.032 226.098 375.808C225.565 375.573 225.144 375.253 224.834 374.848C224.525 374.432 224.354 373.957 224.322 373.424H225.826C225.869 373.861 226.072 374.219 226.434 374.496C226.808 374.773 227.293 374.912 227.89 374.912C228.445 374.912 228.882 374.789 229.202 374.544C229.522 374.299 229.682 373.989 229.682 373.616C229.682 373.232 229.512 372.949 229.17 372.768C228.829 372.576 228.301 372.389 227.586 372.208C226.936 372.037 226.402 371.867 225.986 371.696C225.581 371.515 225.229 371.253 224.93 370.912C224.642 370.56 224.498 370.101 224.498 369.536C224.498 369.088 224.632 368.677 224.898 368.304C225.165 367.931 225.544 367.637 226.034 367.424C226.525 367.2 227.085 367.088 227.714 367.088C228.685 367.088 229.469 367.333 230.066 367.824C230.664 368.315 230.984 368.987 231.026 369.84H229.57C229.538 369.381 229.352 369.013 229.01 368.736C228.68 368.459 228.232 368.32 227.666 368.32C227.144 368.32 226.728 368.432 226.418 368.656C226.109 368.88 225.954 369.173 225.954 369.536C225.954 369.824 226.045 370.064 226.226 370.256C226.418 370.437 226.653 370.587 226.93 370.704C227.218 370.811 227.613 370.933 228.114 371.072C228.744 371.243 229.256 371.413 229.65 371.584C230.045 371.744 230.381 371.989 230.658 372.32C230.946 372.651 231.096 373.083 231.106 373.616C231.106 374.096 230.973 374.528 230.706 374.912C230.44 375.296 230.061 375.6 229.57 375.824C229.09 376.037 228.536 376.144 227.906 376.144Z" fill="#565959"/>
<rect x="99" y="300" width="287" height="35" rx="2" fill="white"/>
<path d="M123.93 315.112C123.93 316.04 123.61 316.813 122.97 317.432C122.341 318.04 121.376 318.344 120.074 318.344H117.93V323H116.474V311.848H120.074C121.333 311.848 122.288 312.152 122.938 312.76C123.6 313.368 123.93 314.152 123.93 315.112ZM120.074 317.144C120.885 317.144 121.482 316.968 121.866 316.616C122.25 316.264 122.442 315.763 122.442 315.112C122.442 313.736 121.653 313.048 120.074 313.048H117.93V317.144H120.074ZM129.564 323.144C128.742 323.144 127.996 322.957 127.324 322.584C126.662 322.211 126.14 321.683 125.756 321C125.382 320.307 125.196 319.507 125.196 318.6C125.196 317.704 125.388 316.915 125.772 316.232C126.166 315.539 126.7 315.011 127.372 314.648C128.044 314.275 128.796 314.088 129.628 314.088C130.46 314.088 131.212 314.275 131.884 314.648C132.556 315.011 133.084 315.533 133.468 316.216C133.862 316.899 134.06 317.693 134.06 318.6C134.06 319.507 133.857 320.307 133.452 321C133.057 321.683 132.518 322.211 131.836 322.584C131.153 322.957 130.396 323.144 129.564 323.144ZM129.564 321.864C130.086 321.864 130.577 321.741 131.036 321.496C131.494 321.251 131.862 320.883 132.14 320.392C132.428 319.901 132.572 319.304 132.572 318.6C132.572 317.896 132.433 317.299 132.156 316.808C131.878 316.317 131.516 315.955 131.068 315.72C130.62 315.475 130.134 315.352 129.612 315.352C129.078 315.352 128.588 315.475 128.14 315.72C127.702 315.955 127.35 316.317 127.084 316.808C126.817 317.299 126.684 317.896 126.684 318.6C126.684 319.315 126.812 319.917 127.068 320.408C127.334 320.899 127.686 321.267 128.124 321.512C128.561 321.747 129.041 321.864 129.564 321.864ZM139.078 323.144C138.406 323.144 137.804 323.032 137.27 322.808C136.737 322.573 136.316 322.253 136.006 321.848C135.697 321.432 135.526 320.957 135.494 320.424H136.998C137.041 320.861 137.244 321.219 137.606 321.496C137.98 321.773 138.465 321.912 139.062 321.912C139.617 321.912 140.054 321.789 140.374 321.544C140.694 321.299 140.854 320.989 140.854 320.616C140.854 320.232 140.684 319.949 140.342 319.768C140.001 319.576 139.473 319.389 138.758 319.208C138.108 319.037 137.574 318.867 137.158 318.696C136.753 318.515 136.401 318.253 136.102 317.912C135.814 317.56 135.67 317.101 135.67 316.536C135.67 316.088 135.804 315.677 136.07 315.304C136.337 314.931 136.716 314.637 137.206 314.424C137.697 314.2 138.257 314.088 138.886 314.088C139.857 314.088 140.641 314.333 141.238 314.824C141.836 315.315 142.156 315.987 142.198 316.84H140.742C140.71 316.381 140.524 316.013 140.182 315.736C139.852 315.459 139.404 315.32 138.838 315.32C138.316 315.32 137.9 315.432 137.59 315.656C137.281 315.88 137.126 316.173 137.126 316.536C137.126 316.824 137.217 317.064 137.398 317.256C137.59 317.437 137.825 317.587 138.102 317.704C138.39 317.811 138.785 317.933 139.286 318.072C139.916 318.243 140.428 318.413 140.822 318.584C141.217 318.744 141.553 318.989 141.83 319.32C142.118 319.651 142.268 320.083 142.278 320.616C142.278 321.096 142.145 321.528 141.878 321.912C141.612 322.296 141.233 322.6 140.742 322.824C140.262 323.037 139.708 323.144 139.078 323.144ZM146.11 315.432V320.6C146.11 321.027 146.2 321.331 146.382 321.512C146.563 321.683 146.878 321.768 147.326 321.768H148.398V323H147.086C146.275 323 145.667 322.813 145.262 322.44C144.856 322.067 144.654 321.453 144.654 320.6V315.432H143.518V314.232H144.654V312.024H146.11V314.232H148.398V315.432H146.11ZM149.618 318.584C149.618 317.688 149.799 316.904 150.162 316.232C150.524 315.549 151.02 315.021 151.65 314.648C152.29 314.275 152.999 314.088 153.778 314.088C154.546 314.088 155.212 314.253 155.778 314.584C156.343 314.915 156.764 315.331 157.042 315.832V314.232H158.514V323H157.042V321.368C156.754 321.88 156.322 322.307 155.746 322.648C155.18 322.979 154.519 323.144 153.762 323.144C152.983 323.144 152.279 322.952 151.65 322.568C151.02 322.184 150.524 321.645 150.162 320.952C149.799 320.259 149.618 319.469 149.618 318.584ZM157.042 318.6C157.042 317.939 156.908 317.363 156.642 316.872C156.375 316.381 156.012 316.008 155.554 315.752C155.106 315.485 154.61 315.352 154.066 315.352C153.522 315.352 153.026 315.48 152.578 315.736C152.13 315.992 151.772 316.365 151.506 316.856C151.239 317.347 151.106 317.923 151.106 318.584C151.106 319.256 151.239 319.843 151.506 320.344C151.772 320.835 152.13 321.213 152.578 321.48C153.026 321.736 153.522 321.864 154.066 321.864C154.61 321.864 155.106 321.736 155.554 321.48C156.012 321.213 156.375 320.835 156.642 320.344C156.908 319.843 157.042 319.261 157.042 318.6ZM162.43 311.16V323H160.974V311.16H162.43ZM168.633 317.416C168.633 316.328 168.879 315.352 169.369 314.488C169.86 313.613 170.527 312.931 171.369 312.44C172.223 311.949 173.167 311.704 174.201 311.704C175.417 311.704 176.479 311.997 177.385 312.584C178.292 313.171 178.953 314.003 179.369 315.08H177.625C177.316 314.408 176.868 313.891 176.281 313.528C175.705 313.165 175.012 312.984 174.201 312.984C173.423 312.984 172.724 313.165 172.105 313.528C171.487 313.891 171.001 314.408 170.649 315.08C170.297 315.741 170.121 316.52 170.121 317.416C170.121 318.301 170.297 319.08 170.649 319.752C171.001 320.413 171.487 320.925 172.105 321.288C172.724 321.651 173.423 321.832 174.201 321.832C175.012 321.832 175.705 321.656 176.281 321.304C176.868 320.941 177.316 320.424 177.625 319.752H179.369C178.953 320.819 178.292 321.645 177.385 322.232C176.479 322.808 175.417 323.096 174.201 323.096C173.167 323.096 172.223 322.856 171.369 322.376C170.527 321.885 169.86 321.208 169.369 320.344C168.879 319.48 168.633 318.504 168.633 317.416ZM185.361 323.144C184.539 323.144 183.793 322.957 183.121 322.584C182.459 322.211 181.937 321.683 181.553 321C181.179 320.307 180.993 319.507 180.993 318.6C180.993 317.704 181.185 316.915 181.569 316.232C181.963 315.539 182.497 315.011 183.169 314.648C183.841 314.275 184.593 314.088 185.425 314.088C186.257 314.088 187.009 314.275 187.681 314.648C188.353 315.011 188.881 315.533 189.265 316.216C189.659 316.899 189.857 317.693 189.857 318.6C189.857 319.507 189.654 320.307 189.249 321C188.854 321.683 188.315 322.211 187.633 322.584C186.95 322.957 186.193 323.144 185.361 323.144ZM185.361 321.864C185.883 321.864 186.374 321.741 186.833 321.496C187.291 321.251 187.659 320.883 187.937 320.392C188.225 319.901 188.369 319.304 188.369 318.6C188.369 317.896 188.23 317.299 187.953 316.808C187.675 316.317 187.313 315.955 186.865 315.72C186.417 315.475 185.931 315.352 185.409 315.352C184.875 315.352 184.385 315.475 183.937 315.72C183.499 315.955 183.147 316.317 182.881 316.808C182.614 317.299 182.481 317.896 182.481 318.6C182.481 319.315 182.609 319.917 182.865 320.408C183.131 320.899 183.483 321.267 183.921 321.512C184.358 321.747 184.838 321.864 185.361 321.864ZM191.227 318.584C191.227 317.688 191.408 316.904 191.771 316.232C192.134 315.549 192.63 315.021 193.259 314.648C193.899 314.275 194.614 314.088 195.403 314.088C196.086 314.088 196.72 314.248 197.307 314.568C197.894 314.877 198.342 315.288 198.651 315.8V311.16H200.123V323H198.651V321.352C198.363 321.875 197.936 322.307 197.371 322.648C196.806 322.979 196.144 323.144 195.387 323.144C194.608 323.144 193.899 322.952 193.259 322.568C192.63 322.184 192.134 321.645 191.771 320.952C191.408 320.259 191.227 319.469 191.227 318.584ZM198.651 318.6C198.651 317.939 198.518 317.363 198.251 316.872C197.984 316.381 197.622 316.008 197.163 315.752C196.715 315.485 196.219 315.352 195.675 315.352C195.131 315.352 194.635 315.48 194.187 315.736C193.739 315.992 193.382 316.365 193.115 316.856C192.848 317.347 192.715 317.923 192.715 318.584C192.715 319.256 192.848 319.843 193.115 320.344C193.382 320.835 193.739 321.213 194.187 321.48C194.635 321.736 195.131 321.864 195.675 321.864C196.219 321.864 196.715 321.736 197.163 321.48C197.622 321.213 197.984 320.835 198.251 320.344C198.518 319.843 198.651 319.261 198.651 318.6ZM210.584 318.28C210.584 318.557 210.568 318.851 210.536 319.16H203.528C203.581 320.024 203.874 320.701 204.408 321.192C204.952 321.672 205.608 321.912 206.376 321.912C207.005 321.912 207.528 321.768 207.944 321.48C208.37 321.181 208.669 320.787 208.84 320.296H210.408C210.173 321.139 209.704 321.827 209 322.36C208.296 322.883 207.421 323.144 206.376 323.144C205.544 323.144 204.797 322.957 204.136 322.584C203.485 322.211 202.973 321.683 202.6 321C202.226 320.307 202.04 319.507 202.04 318.6C202.04 317.693 202.221 316.899 202.584 316.216C202.946 315.533 203.453 315.011 204.104 314.648C204.765 314.275 205.522 314.088 206.376 314.088C207.208 314.088 207.944 314.269 208.584 314.632C209.224 314.995 209.714 315.496 210.056 316.136C210.408 316.765 210.584 317.48 210.584 318.28ZM209.08 317.976C209.08 317.421 208.957 316.947 208.712 316.552C208.466 316.147 208.13 315.843 207.704 315.64C207.288 315.427 206.824 315.32 206.312 315.32C205.576 315.32 204.946 315.555 204.424 316.024C203.912 316.493 203.618 317.144 203.544 317.976H209.08ZM221.827 323.112C220.792 323.112 219.848 322.872 218.995 322.392C218.142 321.901 217.464 321.224 216.963 320.36C216.472 319.485 216.227 318.504 216.227 317.416C216.227 316.328 216.472 315.352 216.963 314.488C217.464 313.613 218.142 312.936 218.995 312.456C219.848 311.965 220.792 311.72 221.827 311.72C222.872 311.72 223.822 311.965 224.675 312.456C225.528 312.936 226.2 313.608 226.691 314.472C227.182 315.336 227.427 316.317 227.427 317.416C227.427 318.515 227.182 319.496 226.691 320.36C226.2 321.224 225.528 321.901 224.675 322.392C223.822 322.872 222.872 323.112 221.827 323.112ZM221.827 321.848C222.606 321.848 223.304 321.667 223.923 321.304C224.552 320.941 225.043 320.424 225.395 319.752C225.758 319.08 225.939 318.301 225.939 317.416C225.939 316.52 225.758 315.741 225.395 315.08C225.043 314.408 224.558 313.891 223.939 313.528C223.32 313.165 222.616 312.984 221.827 312.984C221.038 312.984 220.334 313.165 219.715 313.528C219.096 313.891 218.606 314.408 218.243 315.08C217.891 315.741 217.715 316.52 217.715 317.416C217.715 318.301 217.891 319.08 218.243 319.752C218.606 320.424 219.096 320.941 219.715 321.304C220.344 321.667 221.048 321.848 221.827 321.848ZM232.917 315.432H231.077V323H229.621V315.432H228.485V314.232H229.621V313.608C229.621 312.627 229.872 311.912 230.373 311.464C230.885 311.005 231.701 310.776 232.821 310.776V311.992C232.181 311.992 231.728 312.12 231.461 312.376C231.205 312.621 231.077 313.032 231.077 313.608V314.232H232.917V315.432ZM242.416 323.112C241.68 323.112 241.019 322.984 240.432 322.728C239.856 322.461 239.403 322.099 239.072 321.64C238.742 321.171 238.571 320.632 238.56 320.024H240.112C240.166 320.547 240.379 320.989 240.752 321.352C241.136 321.704 241.691 321.88 242.416 321.88C243.11 321.88 243.654 321.709 244.048 321.368C244.454 321.016 244.656 320.568 244.656 320.024C244.656 319.597 244.539 319.251 244.304 318.984C244.07 318.717 243.776 318.515 243.424 318.376C243.072 318.237 242.598 318.088 242 317.928C241.264 317.736 240.672 317.544 240.224 317.352C239.787 317.16 239.408 316.861 239.088 316.456C238.779 316.04 238.624 315.485 238.624 314.792C238.624 314.184 238.779 313.645 239.088 313.176C239.398 312.707 239.83 312.344 240.384 312.088C240.95 311.832 241.595 311.704 242.32 311.704C243.366 311.704 244.219 311.965 244.88 312.488C245.552 313.011 245.931 313.704 246.016 314.568H244.416C244.363 314.141 244.139 313.768 243.744 313.448C243.35 313.117 242.827 312.952 242.176 312.952C241.568 312.952 241.072 313.112 240.688 313.432C240.304 313.741 240.112 314.179 240.112 314.744C240.112 315.149 240.224 315.48 240.448 315.736C240.683 315.992 240.966 316.189 241.296 316.328C241.638 316.456 242.112 316.605 242.72 316.776C243.456 316.979 244.048 317.181 244.496 317.384C244.944 317.576 245.328 317.88 245.648 318.296C245.968 318.701 246.128 319.256 246.128 319.96C246.128 320.504 245.984 321.016 245.696 321.496C245.408 321.976 244.982 322.365 244.416 322.664C243.851 322.963 243.184 323.112 242.416 323.112ZM247.727 318.6C247.727 317.693 247.908 316.904 248.271 316.232C248.634 315.549 249.135 315.021 249.775 314.648C250.426 314.275 251.167 314.088 251.999 314.088C253.076 314.088 253.962 314.349 254.655 314.872C255.359 315.395 255.823 316.12 256.047 317.048H254.479C254.33 316.515 254.036 316.093 253.599 315.784C253.172 315.475 252.639 315.32 251.999 315.32C251.167 315.32 250.495 315.608 249.983 316.184C249.471 316.749 249.215 317.555 249.215 318.6C249.215 319.656 249.471 320.472 249.983 321.048C250.495 321.624 251.167 321.912 251.999 321.912C252.639 321.912 253.172 321.763 253.599 321.464C254.026 321.165 254.319 320.739 254.479 320.184H256.047C255.812 321.08 255.343 321.8 254.639 322.344C253.935 322.877 253.055 323.144 251.999 323.144C251.167 323.144 250.426 322.957 249.775 322.584C249.135 322.211 248.634 321.683 248.271 321C247.908 320.317 247.727 319.517 247.727 318.6ZM259.446 315.656C259.702 315.155 260.064 314.765 260.534 314.488C261.014 314.211 261.595 314.072 262.278 314.072V315.576H261.894C260.262 315.576 259.446 316.461 259.446 318.232V323H257.99V314.232H259.446V315.656ZM263.415 318.584C263.415 317.688 263.596 316.904 263.959 316.232C264.321 315.549 264.817 315.021 265.447 314.648C266.087 314.275 266.796 314.088 267.575 314.088C268.343 314.088 269.009 314.253 269.575 314.584C270.14 314.915 270.561 315.331 270.839 315.832V314.232H272.311V323H270.839V321.368C270.551 321.88 270.119 322.307 269.543 322.648C268.977 322.979 268.316 323.144 267.559 323.144C266.78 323.144 266.076 322.952 265.447 322.568C264.817 322.184 264.321 321.645 263.959 320.952C263.596 320.259 263.415 319.469 263.415 318.584ZM270.839 318.6C270.839 317.939 270.705 317.363 270.439 316.872C270.172 316.381 269.809 316.008 269.351 315.752C268.903 315.485 268.407 315.352 267.863 315.352C267.319 315.352 266.823 315.48 266.375 315.736C265.927 315.992 265.569 316.365 265.303 316.856C265.036 317.347 264.903 317.923 264.903 318.584C264.903 319.256 265.036 319.843 265.303 320.344C265.569 320.835 265.927 321.213 266.375 321.48C266.823 321.736 267.319 321.864 267.863 321.864C268.407 321.864 268.903 321.736 269.351 321.48C269.809 321.213 270.172 320.835 270.439 320.344C270.705 319.843 270.839 319.261 270.839 318.6ZM276.227 315.848C276.515 315.347 276.942 314.931 277.507 314.6C278.083 314.259 278.75 314.088 279.507 314.088C280.286 314.088 280.99 314.275 281.619 314.648C282.259 315.021 282.76 315.549 283.123 316.232C283.486 316.904 283.667 317.688 283.667 318.584C283.667 319.469 283.486 320.259 283.123 320.952C282.76 321.645 282.259 322.184 281.619 322.568C280.99 322.952 280.286 323.144 279.507 323.144C278.76 323.144 278.099 322.979 277.523 322.648C276.958 322.307 276.526 321.885 276.227 321.384V327.16H274.771V314.232H276.227V315.848ZM282.179 318.584C282.179 317.923 282.046 317.347 281.779 316.856C281.512 316.365 281.15 315.992 280.691 315.736C280.243 315.48 279.747 315.352 279.203 315.352C278.67 315.352 278.174 315.485 277.715 315.752C277.267 316.008 276.904 316.387 276.627 316.888C276.36 317.379 276.227 317.949 276.227 318.6C276.227 319.261 276.36 319.843 276.627 320.344C276.904 320.835 277.267 321.213 277.715 321.48C278.174 321.736 278.67 321.864 279.203 321.864C279.747 321.864 280.243 321.736 280.691 321.48C281.15 321.213 281.512 320.835 281.779 320.344C282.046 319.843 282.179 319.256 282.179 318.584ZM289.305 317.416C289.305 316.328 289.551 315.352 290.041 314.488C290.532 313.613 291.199 312.931 292.041 312.44C292.895 311.949 293.839 311.704 294.873 311.704C296.089 311.704 297.151 311.997 298.057 312.584C298.964 313.171 299.625 314.003 300.041 315.08H298.297C297.988 314.408 297.54 313.891 296.953 313.528C296.377 313.165 295.684 312.984 294.873 312.984C294.095 312.984 293.396 313.165 292.777 313.528C292.159 313.891 291.673 314.408 291.321 315.08C290.969 315.741 290.793 316.52 290.793 317.416C290.793 318.301 290.969 319.08 291.321 319.752C291.673 320.413 292.159 320.925 292.777 321.288C293.396 321.651 294.095 321.832 294.873 321.832C295.684 321.832 296.377 321.656 296.953 321.304C297.54 320.941 297.988 320.424 298.297 319.752H300.041C299.625 320.819 298.964 321.645 298.057 322.232C297.151 322.808 296.089 323.096 294.873 323.096C293.839 323.096 292.895 322.856 292.041 322.376C291.199 321.885 290.532 321.208 290.041 320.344C289.551 319.48 289.305 318.504 289.305 317.416ZM301.665 318.584C301.665 317.688 301.846 316.904 302.209 316.232C302.571 315.549 303.067 315.021 303.697 314.648C304.337 314.275 305.046 314.088 305.825 314.088C306.593 314.088 307.259 314.253 307.825 314.584C308.39 314.915 308.811 315.331 309.089 315.832V314.232H310.561V323H309.089V321.368C308.801 321.88 308.369 322.307 307.793 322.648C307.227 322.979 306.566 323.144 305.809 323.144C305.03 323.144 304.326 322.952 303.697 322.568C303.067 322.184 302.571 321.645 302.209 320.952C301.846 320.259 301.665 319.469 301.665 318.584ZM309.089 318.6C309.089 317.939 308.955 317.363 308.689 316.872C308.422 316.381 308.059 316.008 307.601 315.752C307.153 315.485 306.657 315.352 306.113 315.352C305.569 315.352 305.073 315.48 304.625 315.736C304.177 315.992 303.819 316.365 303.553 316.856C303.286 317.347 303.153 317.923 303.153 318.584C303.153 319.256 303.286 319.843 303.553 320.344C303.819 320.835 304.177 321.213 304.625 321.48C305.073 321.736 305.569 321.864 306.113 321.864C306.657 321.864 307.153 321.736 307.601 321.48C308.059 321.213 308.422 320.835 308.689 320.344C308.955 319.843 309.089 319.261 309.089 318.6ZM314.477 315.656C314.733 315.155 315.096 314.765 315.565 314.488C316.045 314.211 316.626 314.072 317.309 314.072V315.576H316.925C315.293 315.576 314.477 316.461 314.477 318.232V323H313.021V314.232H314.477V315.656Z" fill="#565959"/>
<rect x="99" y="247" width="287" height="35" rx="2" fill="white"/>
<path d="M123.743 262.112C123.743 263.04 123.423 263.813 122.783 264.432C122.153 265.04 121.188 265.344 119.887 265.344H117.743V270H116.287V258.848H119.887C121.145 258.848 122.1 259.152 122.751 259.76C123.412 260.368 123.743 261.152 123.743 262.112ZM119.887 264.144C120.697 264.144 121.295 263.968 121.679 263.616C122.063 263.264 122.255 262.763 122.255 262.112C122.255 260.736 121.465 260.048 119.887 260.048H117.743V264.144H119.887ZM129.904 261.072C130.566 261.072 131.163 261.216 131.696 261.504C132.23 261.781 132.646 262.203 132.944 262.768C133.254 263.333 133.408 264.021 133.408 264.832V270H131.968V265.04C131.968 264.165 131.75 263.499 131.312 263.04C130.875 262.571 130.278 262.336 129.52 262.336C128.752 262.336 128.139 262.576 127.68 263.056C127.232 263.536 127.008 264.235 127.008 265.152V270H125.552V258.16H127.008V262.48C127.296 262.032 127.691 261.685 128.192 261.44C128.704 261.195 129.275 261.072 129.904 261.072ZM139.611 270.144C138.789 270.144 138.043 269.957 137.371 269.584C136.709 269.211 136.187 268.683 135.803 268C135.429 267.307 135.243 266.507 135.243 265.6C135.243 264.704 135.435 263.915 135.819 263.232C136.213 262.539 136.747 262.011 137.419 261.648C138.091 261.275 138.843 261.088 139.675 261.088C140.507 261.088 141.259 261.275 141.931 261.648C142.603 262.011 143.131 262.533 143.515 263.216C143.909 263.899 144.107 264.693 144.107 265.6C144.107 266.507 143.904 267.307 143.499 268C143.104 268.683 142.565 269.211 141.883 269.584C141.2 269.957 140.443 270.144 139.611 270.144ZM139.611 268.864C140.133 268.864 140.624 268.741 141.083 268.496C141.541 268.251 141.909 267.883 142.187 267.392C142.475 266.901 142.619 266.304 142.619 265.6C142.619 264.896 142.48 264.299 142.203 263.808C141.925 263.317 141.563 262.955 141.115 262.72C140.667 262.475 140.181 262.352 139.659 262.352C139.125 262.352 138.635 262.475 138.187 262.72C137.749 262.955 137.397 263.317 137.131 263.808C136.864 264.299 136.731 264.896 136.731 265.6C136.731 266.315 136.859 266.917 137.115 267.408C137.381 267.899 137.733 268.267 138.171 268.512C138.608 268.747 139.088 268.864 139.611 268.864ZM150.293 261.072C151.36 261.072 152.224 261.397 152.885 262.048C153.546 262.688 153.877 263.616 153.877 264.832V270H152.437V265.04C152.437 264.165 152.218 263.499 151.781 263.04C151.344 262.571 150.746 262.336 149.989 262.336C149.221 262.336 148.608 262.576 148.149 263.056C147.701 263.536 147.477 264.235 147.477 265.152V270H146.021V261.232H147.477V262.48C147.765 262.032 148.154 261.685 148.645 261.44C149.146 261.195 149.696 261.072 150.293 261.072ZM164.255 265.28C164.255 265.557 164.239 265.851 164.207 266.16H157.199C157.253 267.024 157.546 267.701 158.079 268.192C158.623 268.672 159.279 268.912 160.047 268.912C160.677 268.912 161.199 268.768 161.615 268.48C162.042 268.181 162.341 267.787 162.511 267.296H164.079C163.845 268.139 163.375 268.827 162.671 269.36C161.967 269.883 161.093 270.144 160.047 270.144C159.215 270.144 158.469 269.957 157.807 269.584C157.157 269.211 156.645 268.683 156.271 268C155.898 267.307 155.711 266.507 155.711 265.6C155.711 264.693 155.893 263.899 156.255 263.216C156.618 262.533 157.125 262.011 157.775 261.648C158.437 261.275 159.194 261.088 160.047 261.088C160.879 261.088 161.615 261.269 162.255 261.632C162.895 261.995 163.386 262.496 163.727 263.136C164.079 263.765 164.255 264.48 164.255 265.28ZM162.751 264.976C162.751 264.421 162.629 263.947 162.383 263.552C162.138 263.147 161.802 262.843 161.375 262.64C160.959 262.427 160.495 262.32 159.983 262.32C159.247 262.32 158.618 262.555 158.095 263.024C157.583 263.493 157.29 264.144 157.215 264.976H162.751Z" fill="#565959"/>
<rect x="99" y="194" width="287" height="35" rx="2" fill="white"/>
<path d="M118.001 207.032V210.76H122.065V211.96H118.001V215.8H122.545V217H116.545V205.832H122.545V207.032H118.001ZM135.292 208.072C135.974 208.072 136.582 208.216 137.116 208.504C137.649 208.781 138.07 209.203 138.38 209.768C138.689 210.333 138.844 211.021 138.844 211.832V217H137.404V212.04C137.404 211.165 137.185 210.499 136.748 210.04C136.321 209.571 135.74 209.336 135.004 209.336C134.246 209.336 133.644 209.581 133.196 210.072C132.748 210.552 132.524 211.251 132.524 212.168V217H131.084V212.04C131.084 211.165 130.865 210.499 130.428 210.04C130.001 209.571 129.42 209.336 128.684 209.336C127.926 209.336 127.324 209.581 126.876 210.072C126.428 210.552 126.204 211.251 126.204 212.168V217H124.748V208.232H126.204V209.496C126.492 209.037 126.876 208.685 127.356 208.44C127.846 208.195 128.385 208.072 128.972 208.072C129.708 208.072 130.358 208.237 130.924 208.568C131.489 208.899 131.91 209.384 132.188 210.024C132.433 209.405 132.838 208.925 133.404 208.584C133.969 208.243 134.598 208.072 135.292 208.072ZM140.688 212.584C140.688 211.688 140.869 210.904 141.232 210.232C141.595 209.549 142.091 209.021 142.72 208.648C143.36 208.275 144.069 208.088 144.848 208.088C145.616 208.088 146.283 208.253 146.848 208.584C147.413 208.915 147.835 209.331 148.112 209.832V208.232H149.584V217H148.112V215.368C147.824 215.88 147.392 216.307 146.816 216.648C146.251 216.979 145.589 217.144 144.832 217.144C144.053 217.144 143.349 216.952 142.72 216.568C142.091 216.184 141.595 215.645 141.232 214.952C140.869 214.259 140.688 213.469 140.688 212.584ZM148.112 212.6C148.112 211.939 147.979 211.363 147.712 210.872C147.445 210.381 147.083 210.008 146.624 209.752C146.176 209.485 145.68 209.352 145.136 209.352C144.592 209.352 144.096 209.48 143.648 209.736C143.2 209.992 142.843 210.365 142.576 210.856C142.309 211.347 142.176 211.923 142.176 212.584C142.176 213.256 142.309 213.843 142.576 214.344C142.843 214.835 143.2 215.213 143.648 215.48C144.096 215.736 144.592 215.864 145.136 215.864C145.68 215.864 146.176 215.736 146.624 215.48C147.083 215.213 147.445 214.835 147.712 214.344C147.979 213.843 148.112 213.261 148.112 212.6ZM152.797 206.808C152.519 206.808 152.285 206.712 152.093 206.52C151.901 206.328 151.805 206.093 151.805 205.816C151.805 205.539 151.901 205.304 152.093 205.112C152.285 204.92 152.519 204.824 152.797 204.824C153.063 204.824 153.287 204.92 153.469 205.112C153.661 205.304 153.757 205.539 153.757 205.816C153.757 206.093 153.661 206.328 153.469 206.52C153.287 206.712 153.063 206.808 152.797 206.808ZM153.501 208.232V217H152.045V208.232H153.501ZM157.438 205.16V217H155.982V205.16H157.438Z" fill="#565959"/>
<rect x="99" y="141" width="287" height="35" rx="2" fill="white"/>
<path d="M122.583 152.848V154.032H117.735V157.792H121.671V158.976H117.735V164H116.279V152.848H122.583ZM132.117 155.232V164H130.661V162.704C130.384 163.152 129.995 163.504 129.493 163.76C129.003 164.005 128.459 164.128 127.861 164.128C127.179 164.128 126.565 163.989 126.021 163.712C125.477 163.424 125.045 162.997 124.725 162.432C124.416 161.867 124.261 161.179 124.261 160.368V155.232H125.701V160.176C125.701 161.04 125.92 161.707 126.357 162.176C126.795 162.635 127.392 162.864 128.149 162.864C128.928 162.864 129.541 162.624 129.989 162.144C130.437 161.664 130.661 160.965 130.661 160.048V155.232H132.117ZM136.032 152.16V164H134.576V152.16H136.032ZM139.969 152.16V164H138.513V152.16H139.969ZM155.484 164H154.028L148.172 155.12V164H146.716V152.832H148.172L154.028 161.696V152.832H155.484V164ZM157.422 159.584C157.422 158.688 157.604 157.904 157.966 157.232C158.329 156.549 158.825 156.021 159.454 155.648C160.094 155.275 160.804 155.088 161.582 155.088C162.35 155.088 163.017 155.253 163.582 155.584C164.148 155.915 164.569 156.331 164.846 156.832V155.232H166.318V164H164.846V162.368C164.558 162.88 164.126 163.307 163.55 163.648C162.985 163.979 162.324 164.144 161.566 164.144C160.788 164.144 160.084 163.952 159.454 163.568C158.825 163.184 158.329 162.645 157.966 161.952C157.604 161.259 157.422 160.469 157.422 159.584ZM164.846 159.6C164.846 158.939 164.713 158.363 164.446 157.872C164.18 157.381 163.817 157.008 163.358 156.752C162.91 156.485 162.414 156.352 161.87 156.352C161.326 156.352 160.83 156.48 160.382 156.736C159.934 156.992 159.577 157.365 159.31 157.856C159.044 158.347 158.91 158.923 158.91 159.584C158.91 160.256 159.044 160.843 159.31 161.344C159.577 161.835 159.934 162.213 160.382 162.48C160.83 162.736 161.326 162.864 161.87 162.864C162.414 162.864 162.91 162.736 163.358 162.48C163.817 162.213 164.18 161.835 164.446 161.344C164.713 160.843 164.846 160.261 164.846 159.6ZM179.323 155.072C180.006 155.072 180.614 155.216 181.147 155.504C181.68 155.781 182.102 156.203 182.411 156.768C182.72 157.333 182.875 158.021 182.875 158.832V164H181.435V159.04C181.435 158.165 181.216 157.499 180.779 157.04C180.352 156.571 179.771 156.336 179.035 156.336C178.278 156.336 177.675 156.581 177.227 157.072C176.779 157.552 176.555 158.251 176.555 159.168V164H175.115V159.04C175.115 158.165 174.896 157.499 174.459 157.04C174.032 156.571 173.451 156.336 172.715 156.336C171.958 156.336 171.355 156.581 170.907 157.072C170.459 157.552 170.235 158.251 170.235 159.168V164H168.779V155.232H170.235V156.496C170.523 156.037 170.907 155.685 171.387 155.44C171.878 155.195 172.416 155.072 173.003 155.072C173.739 155.072 174.39 155.237 174.955 155.568C175.52 155.899 175.942 156.384 176.219 157.024C176.464 156.405 176.87 155.925 177.435 155.584C178 155.243 178.63 155.072 179.323 155.072ZM193.263 159.28C193.263 159.557 193.247 159.851 193.215 160.16H186.207C186.261 161.024 186.554 161.701 187.087 162.192C187.631 162.672 188.287 162.912 189.055 162.912C189.685 162.912 190.207 162.768 190.623 162.48C191.05 162.181 191.349 161.787 191.519 161.296H193.087C192.853 162.139 192.383 162.827 191.679 163.36C190.975 163.883 190.101 164.144 189.055 164.144C188.223 164.144 187.477 163.957 186.815 163.584C186.165 163.211 185.653 162.683 185.279 162C184.906 161.307 184.719 160.507 184.719 159.6C184.719 158.693 184.901 157.899 185.263 157.216C185.626 156.533 186.133 156.011 186.783 155.648C187.445 155.275 188.202 155.088 189.055 155.088C189.887 155.088 190.623 155.269 191.263 155.632C191.903 155.995 192.394 156.496 192.735 157.136C193.087 157.765 193.263 158.48 193.263 159.28ZM191.759 158.976C191.759 158.421 191.637 157.947 191.391 157.552C191.146 157.147 190.81 156.843 190.383 156.64C189.967 156.427 189.503 156.32 188.991 156.32C188.255 156.32 187.626 156.555 187.103 157.024C186.591 157.493 186.298 158.144 186.223 158.976H191.759Z" fill="#565959"/>
<path d="M102.841 86.85L99.8914 88.975C100.291 89.8083 100.85 90.575 101.566 91.275C102.283 91.975 103.125 92.5333 104.091 92.95C105.075 93.35 106.133 93.55 107.266 93.55C108.083 93.55 108.875 93.425 109.641 93.175C110.425 92.9417 111.116 92.5917 111.716 92.125C112.333 91.6583 112.816 91.0833 113.166 90.4C113.533 89.7 113.716 88.9083 113.716 88.025C113.716 87.2917 113.6 86.6417 113.366 86.075C113.133 85.5083 112.808 85.0083 112.391 84.575C111.991 84.1417 111.525 83.775 110.991 83.475C110.458 83.1583 109.883 82.8833 109.266 82.65C108.45 82.3667 107.75 82.1 107.166 81.85C106.6 81.6 106.158 81.325 105.841 81.025C105.541 80.725 105.391 80.375 105.391 79.975C105.391 79.5917 105.55 79.275 105.866 79.025C106.183 78.7583 106.641 78.625 107.241 78.625C107.691 78.625 108.108 78.7167 108.491 78.9C108.891 79.0667 109.25 79.3083 109.566 79.625C109.9 79.925 110.191 80.2833 110.441 80.7L113.666 78.9C113.366 78.3 112.933 77.7083 112.366 77.125C111.8 76.5417 111.083 76.0583 110.216 75.675C109.366 75.2917 108.358 75.1 107.191 75.1C106.058 75.1 105.025 75.3 104.091 75.7C103.175 76.0833 102.441 76.65 101.891 77.4C101.358 78.15 101.091 79.0417 101.091 80.075C101.091 80.9417 101.25 81.6833 101.566 82.3C101.883 82.9 102.283 83.4167 102.766 83.85C103.25 84.2667 103.758 84.6083 104.291 84.875C104.841 85.1417 105.325 85.35 105.741 85.5C106.591 85.8167 107.275 86.1 107.791 86.35C108.308 86.6 108.683 86.8667 108.916 87.15C109.15 87.4167 109.266 87.775 109.266 88.225C109.266 88.7583 109.066 89.1833 108.666 89.5C108.266 89.8 107.758 89.95 107.141 89.95C106.558 89.95 106 89.825 105.466 89.575C104.95 89.325 104.466 88.9667 104.016 88.5C103.583 88.0333 103.191 87.4833 102.841 86.85ZM122.016 93.25C123.483 93.25 124.725 92.9667 125.741 92.4C126.775 91.8333 127.591 90.9833 128.191 89.85L124.816 89.025C124.533 89.525 124.15 89.9 123.666 90.15C123.2 90.4 122.633 90.525 121.966 90.525C121.383 90.525 120.891 90.4 120.491 90.15C120.091 89.8833 119.791 89.5 119.591 89C119.391 88.5 119.291 87.9 119.291 87.2C119.308 86.4333 119.408 85.8 119.591 85.3C119.791 84.7833 120.083 84.4 120.466 84.15C120.85 83.9 121.325 83.775 121.891 83.775C122.341 83.775 122.733 83.875 123.066 84.075C123.4 84.275 123.658 84.5583 123.841 84.925C124.025 85.2917 124.116 85.725 124.116 86.225C124.116 86.3417 124.083 86.4917 124.016 86.675C123.966 86.8417 123.9 86.9833 123.816 87.1L124.716 85.95H117.616V88.05H128.116C128.15 87.9333 128.166 87.7917 128.166 87.625C128.166 87.4417 128.166 87.2583 128.166 87.075C128.166 85.8417 127.925 84.7917 127.441 83.925C126.958 83.0583 126.258 82.4 125.341 81.95C124.425 81.4833 123.3 81.25 121.966 81.25C120.633 81.25 119.475 81.4917 118.491 81.975C117.525 82.4583 116.783 83.15 116.266 84.05C115.75 84.95 115.491 86.0167 115.491 87.25C115.491 88.4667 115.758 89.525 116.291 90.425C116.825 91.325 117.575 92.025 118.541 92.525C119.525 93.0083 120.683 93.25 122.016 93.25ZM130.497 73.5V93H134.297V73.5H130.497ZM137.236 73.5V93H141.036V73.5H137.236ZM161.669 75.5L158.244 82.075L154.819 75.5H149.969L156.094 85.9V93H160.394V85.875L166.519 75.5H161.669ZM164.808 87.25C164.808 88.45 165.091 89.5 165.658 90.4C166.224 91.3 167.008 92 168.008 92.5C169.008 93 170.133 93.25 171.383 93.25C172.633 93.25 173.749 93 174.733 92.5C175.733 92 176.516 91.3 177.083 90.4C177.666 89.5 177.958 88.45 177.958 87.25C177.958 86.0333 177.666 84.975 177.083 84.075C176.516 83.175 175.733 82.475 174.733 81.975C173.749 81.475 172.633 81.225 171.383 81.225C170.133 81.225 169.008 81.475 168.008 81.975C167.008 82.475 166.224 83.175 165.658 84.075C165.091 84.975 164.808 86.0333 164.808 87.25ZM168.683 87.25C168.683 86.65 168.808 86.1333 169.058 85.7C169.308 85.2667 169.633 84.9333 170.033 84.7C170.433 84.4667 170.883 84.35 171.383 84.35C171.866 84.35 172.308 84.4667 172.708 84.7C173.124 84.9333 173.449 85.2667 173.683 85.7C173.933 86.1333 174.058 86.65 174.058 87.25C174.058 87.85 173.933 88.3667 173.683 88.8C173.449 89.2167 173.124 89.5417 172.708 89.775C172.308 90.0083 171.866 90.125 171.383 90.125C170.883 90.125 170.433 90.0083 170.033 89.775C169.633 89.5417 169.308 89.2167 169.058 88.8C168.808 88.3667 168.683 87.85 168.683 87.25ZM184.179 88.5V81.5H180.229V88.9C180.229 90.2667 180.554 91.3417 181.204 92.125C181.871 92.8917 182.921 93.275 184.354 93.275C185.204 93.275 185.912 93.1 186.479 92.75C187.046 92.3833 187.504 91.8917 187.854 91.275V93H191.629V81.5H187.854V88.5C187.854 88.95 187.771 89.3333 187.604 89.65C187.437 89.9667 187.204 90.2083 186.904 90.375C186.621 90.5417 186.271 90.625 185.854 90.625C185.237 90.625 184.804 90.4417 184.554 90.075C184.304 89.6917 184.179 89.1667 184.179 88.5ZM198.334 81.5H194.609V93H198.334V81.5ZM201.659 85.4L203.284 82.175C203.084 81.875 202.792 81.6417 202.409 81.475C202.025 81.3083 201.625 81.225 201.209 81.225C200.575 81.225 199.967 81.4333 199.384 81.85C198.8 82.2667 198.325 82.8333 197.959 83.55C197.609 84.2667 197.434 85.0833 197.434 86L198.334 87.325C198.334 86.775 198.409 86.3083 198.559 85.925C198.709 85.5417 198.925 85.25 199.209 85.05C199.492 84.85 199.817 84.75 200.184 84.75C200.517 84.75 200.792 84.8083 201.009 84.925C201.242 85.0417 201.459 85.2 201.659 85.4ZM216.357 84.25C216.357 83.1667 216.599 82.2417 217.082 81.475C217.566 80.7083 218.199 80.125 218.982 79.725C219.782 79.325 220.657 79.125 221.607 79.125C222.441 79.125 223.174 79.2333 223.807 79.45C224.441 79.65 225.007 79.9333 225.507 80.3C226.007 80.65 226.449 81.025 226.832 81.425V76.875C226.132 76.325 225.366 75.8917 224.532 75.575C223.699 75.2583 222.641 75.1 221.357 75.1C219.957 75.1 218.666 75.3167 217.482 75.75C216.299 76.1833 215.282 76.8083 214.432 77.625C213.582 78.4417 212.924 79.4083 212.457 80.525C211.991 81.6417 211.757 82.8833 211.757 84.25C211.757 85.6167 211.991 86.8583 212.457 87.975C212.924 89.0917 213.582 90.0583 214.432 90.875C215.282 91.6917 216.299 92.3167 217.482 92.75C218.666 93.1833 219.957 93.4 221.357 93.4C222.641 93.4 223.699 93.2417 224.532 92.925C225.366 92.6083 226.132 92.175 226.832 91.625V87.075C226.449 87.475 226.007 87.85 225.507 88.2C225.007 88.55 224.441 88.8333 223.807 89.05C223.174 89.2667 222.441 89.375 221.607 89.375C220.657 89.375 219.782 89.175 218.982 88.775C218.199 88.375 217.566 87.7917 217.082 87.025C216.599 86.2417 216.357 85.3167 216.357 84.25ZM232.837 89.4C232.837 89.1167 232.903 88.8833 233.037 88.7C233.17 88.5 233.37 88.35 233.637 88.25C233.903 88.15 234.262 88.1 234.712 88.1C235.295 88.1 235.845 88.1833 236.362 88.35C236.895 88.5 237.362 88.725 237.762 89.025V87.35C237.562 87.1333 237.262 86.925 236.862 86.725C236.462 86.525 235.978 86.3583 235.412 86.225C234.862 86.0917 234.237 86.025 233.537 86.025C232.103 86.025 230.995 86.35 230.212 87C229.428 87.6333 229.037 88.5 229.037 89.6C229.037 90.3833 229.22 91.05 229.587 91.6C229.97 92.15 230.47 92.5667 231.087 92.85C231.72 93.1167 232.403 93.25 233.137 93.25C233.87 93.25 234.553 93.125 235.187 92.875C235.82 92.6083 236.337 92.225 236.737 91.725C237.137 91.2083 237.337 90.5833 237.337 89.85L236.937 88.35C236.937 88.8833 236.82 89.3333 236.587 89.7C236.353 90.0667 236.053 90.3417 235.687 90.525C235.32 90.7083 234.92 90.8 234.487 90.8C234.187 90.8 233.912 90.75 233.662 90.65C233.412 90.5333 233.212 90.375 233.062 90.175C232.912 89.9583 232.837 89.7 232.837 89.4ZM231.162 85.025C231.328 84.925 231.595 84.8 231.962 84.65C232.328 84.4833 232.753 84.3417 233.237 84.225C233.737 84.1083 234.245 84.05 234.762 84.05C235.112 84.05 235.42 84.0833 235.687 84.15C235.97 84.2167 236.203 84.325 236.387 84.475C236.57 84.625 236.703 84.8083 236.787 85.025C236.887 85.225 236.937 85.4667 236.937 85.75V93H240.562V84.9C240.562 84.1 240.328 83.425 239.862 82.875C239.395 82.325 238.762 81.9083 237.962 81.625C237.162 81.325 236.253 81.175 235.237 81.175C234.153 81.175 233.153 81.3167 232.237 81.6C231.32 81.8833 230.537 82.1833 229.887 82.5L231.162 85.025ZM247.113 81.5H243.388V93H247.113V81.5ZM250.438 85.4L252.063 82.175C251.863 81.875 251.571 81.6417 251.188 81.475C250.805 81.3083 250.405 81.225 249.988 81.225C249.355 81.225 248.746 81.4333 248.163 81.85C247.58 82.2667 247.105 82.8333 246.738 83.55C246.388 84.2667 246.213 85.0833 246.213 86L247.113 87.325C247.113 86.775 247.188 86.3083 247.338 85.925C247.488 85.5417 247.705 85.25 247.988 85.05C248.271 84.85 248.596 84.75 248.963 84.75C249.296 84.75 249.571 84.8083 249.788 84.925C250.021 85.0417 250.238 85.2 250.438 85.4ZM273.612 75.5V85.35L261.537 74.625V93H265.587V83.15L277.687 93.875V75.5H273.612ZM280.335 87.25C280.335 88.45 280.618 89.5 281.185 90.4C281.752 91.3 282.535 92 283.535 92.5C284.535 93 285.66 93.25 286.91 93.25C288.16 93.25 289.277 93 290.26 92.5C291.26 92 292.043 91.3 292.61 90.4C293.193 89.5 293.485 88.45 293.485 87.25C293.485 86.0333 293.193 84.975 292.61 84.075C292.043 83.175 291.26 82.475 290.26 81.975C289.277 81.475 288.16 81.225 286.91 81.225C285.66 81.225 284.535 81.475 283.535 81.975C282.535 82.475 281.752 83.175 281.185 84.075C280.618 84.975 280.335 86.0333 280.335 87.25ZM284.21 87.25C284.21 86.65 284.335 86.1333 284.585 85.7C284.835 85.2667 285.16 84.9333 285.56 84.7C285.96 84.4667 286.41 84.35 286.91 84.35C287.393 84.35 287.835 84.4667 288.235 84.7C288.652 84.9333 288.977 85.2667 289.21 85.7C289.46 86.1333 289.585 86.65 289.585 87.25C289.585 87.85 289.46 88.3667 289.21 88.8C288.977 89.2167 288.652 89.5417 288.235 89.775C287.835 90.0083 287.393 90.125 286.91 90.125C286.41 90.125 285.96 90.0083 285.56 89.775C285.16 89.5417 284.835 89.2167 284.585 88.8C284.335 88.3667 284.21 87.85 284.21 87.25ZM293.74 81.5L299.665 93.725L303.39 86.875L307.19 93.725L313.115 81.5H309.165L306.765 87.4L303.39 80.625L300.09 87.4L297.69 81.5H293.74Z" fill="black"/>
</svg>
