<svg width="22" height="22" viewBox="0 0 22 22" fill="none" xmlns="http://www.w3.org/2000/svg">
<circle cx="11" cy="11" r="11" fill="#1B8F7A"/>
<path d="M16.5218 13.6303V15.3378C16.5224 15.4963 16.49 15.6532 16.4265 15.7985C16.363 15.9437 16.2698 16.0741 16.153 16.1813C16.0362 16.2884 15.8983 16.37 15.7482 16.4208C15.598 16.4716 15.4389 16.4904 15.281 16.4762C13.5296 16.2859 11.8472 15.6874 10.3691 14.7288C8.99391 13.855 7.82797 12.689 6.95411 11.3138C5.99221 9.82898 5.39359 8.13844 5.20677 6.37914C5.19255 6.22175 5.21125 6.06312 5.26169 5.91335C5.31214 5.76358 5.39321 5.62596 5.49976 5.50924C5.6063 5.39252 5.73598 5.29927 5.88054 5.23542C6.0251 5.17156 6.18138 5.13851 6.33941 5.13836H8.04691C8.32313 5.13564 8.59091 5.23346 8.80035 5.41357C9.00979 5.59369 9.14658 5.84381 9.18524 6.11733C9.25731 6.66377 9.39097 7.2003 9.58366 7.71669C9.66024 7.9204 9.67681 8.1418 9.63142 8.35465C9.58602 8.5675 9.48056 8.76288 9.32753 8.91763L8.60469 9.64047C9.41493 11.0654 10.5948 12.2452 12.0197 13.0555L12.7425 12.3326C12.8973 12.1796 13.0927 12.0741 13.3055 12.0287C13.5184 11.9834 13.7398 11.9999 13.9435 12.0765C14.4599 12.2692 14.9964 12.4028 15.5428 12.4749C15.8193 12.5139 16.0718 12.6532 16.2523 12.8662C16.4328 13.0793 16.5287 13.3512 16.5218 13.6303Z" stroke="white" stroke-width="1.5" stroke-linecap="round" stroke-linejoin="round"/>
</svg>
