<svg width="29" height="29" viewBox="0 0 29 29" fill="none" xmlns="http://www.w3.org/2000/svg">
<path d="M18 11.25H18.012" stroke="white" stroke-width="2" stroke-linecap="round" stroke-linejoin="round"/>
<circle cx="14.5" cy="14.5" r="14.5" fill="#1B8F7A"/>
<path d="M12.75 22.5H17.25C21 22.5 22.5 21 22.5 17.25V12.75C22.5 9 21 7.5 17.25 7.5H12.75C9 7.5 7.5 9 7.5 12.75V17.25C7.5 21 9 22.5 12.75 22.5Z" stroke="white" stroke-width="1.5" stroke-linecap="round" stroke-linejoin="round"/>
<path d="M15 17.625C15.3447 17.625 15.6861 17.5571 16.0045 17.4252C16.323 17.2933 16.6124 17.0999 16.8562 16.8562C17.0999 16.6124 17.2933 16.323 17.4252 16.0045C17.5571 15.6861 17.625 15.3447 17.625 15C17.625 14.6553 17.5571 14.3139 17.4252 13.9955C17.2933 13.677 17.0999 13.3876 16.8562 13.1438C16.6124 12.9001 16.323 12.7067 16.0045 12.5748C15.6861 12.4429 15.3447 12.375 15 12.375C14.3038 12.375 13.6361 12.6516 13.1438 13.1438C12.6516 13.6361 12.375 14.3038 12.375 15C12.375 15.6962 12.6516 16.3639 13.1438 16.8562C13.6361 17.3484 14.3038 17.625 15 17.625V17.625Z" stroke="white" stroke-width="1.5" stroke-linecap="round" stroke-linejoin="round"/>
</svg>
