<svg width="70" height="70" viewBox="0 0 70 70" fill="none" xmlns="http://www.w3.org/2000/svg">
<circle cx="35" cy="35" r="35" fill="#1B8F7A"/>
<path d="M25.4984 28.7423H24.2484M46.7484 28.7423H45.4984M35.4985 22.2217V24.8299M33.6235 24.8299H37.3735M27.9984 37.8712H31.7484M39.2484 37.8712H42.9984M39.886 22H31.1109C27.9984 22 27.311 23.6171 26.911 25.5994L25.4984 32.6547H45.4984L44.086 25.5994C43.686 23.6171 42.9985 22 39.886 22ZM47.986 44.157C48.1235 45.6828 46.9484 47 45.4484 47H43.0984C41.7484 47 41.561 46.4001 41.3235 45.6568L41.0734 44.8743C40.7234 43.8049 40.4985 43.0876 38.6985 43.0876H32.2984C30.4984 43.0876 30.2359 43.8962 29.9234 44.8743L29.6734 45.6568C29.4359 46.4001 29.2484 47 27.8984 47H25.5484C24.0484 47 22.8734 45.6828 23.0109 44.157L23.7109 36.2149C23.8859 34.2587 24.2485 32.6547 27.5234 32.6547H43.4734C46.7484 32.6547 47.1109 34.2587 47.2859 36.2149L47.986 44.157Z" stroke="white" stroke-width="1.5" stroke-linecap="round" stroke-linejoin="round"/>
</svg>
