<svg width="70" height="70" viewBox="0 0 70 70" fill="none" xmlns="http://www.w3.org/2000/svg">
<circle cx="35" cy="35" r="35" fill="#1B8F7A"/>
<path d="M41.1143 49.9142C41.1143 45.9199 37.1372 42.6628 32.2172 42.6628C27.2972 42.6628 23.3201 45.9028 23.3201 49.9142M32.2172 38.8228C33.4948 38.8228 34.7201 38.3152 35.6234 37.4119C36.5268 36.5085 37.0343 35.2832 37.0343 34.0056C37.0343 32.728 36.5268 31.5028 35.6234 30.5994C34.7201 29.696 33.4948 29.1885 32.2172 29.1885C30.9396 29.1885 29.7144 29.696 28.811 30.5994C27.9076 31.5028 27.4001 32.728 27.4001 34.0056C27.4001 35.2832 27.9076 36.5085 28.811 37.4119C29.7144 38.3152 30.9396 38.8228 32.2172 38.8228V38.8228Z" stroke="white" stroke-width="1.5" stroke-linecap="round" stroke-linejoin="round"/>
<path d="M48.5714 36.7144C48.5714 45.7144 41.2857 53.0001 32.2857 53.0001C23.2857 53.0001 16 45.7144 16 36.7144C16 27.7144 23.2857 20.4287 32.2857 20.4287C34.5314 20.4287 36.6743 20.8744 38.6286 21.6973C38.4057 22.383 38.2857 23.103 38.2857 23.8573C38.2857 25.143 38.6457 26.3601 39.28 27.3887C39.6228 27.9716 40.0686 28.503 40.5828 28.9487C41.7828 30.0458 43.3771 30.7144 45.1428 30.7144C45.8971 30.7144 46.6171 30.5944 47.2857 30.3544C48.1086 32.3087 48.5714 34.4687 48.5714 36.7144Z" stroke="white" stroke-width="1.5" stroke-linecap="round" stroke-linejoin="round"/>
<path d="M47.6971 23.8229H42.5885M45.1428 21.32V26.4457M51.9999 23.8572C51.9999 24.4057 51.9314 24.9372 51.7942 25.4514C51.6399 26.1372 51.3657 26.8057 51.0057 27.3886C50.1828 28.7771 48.8628 29.8571 47.2857 30.3543C46.6171 30.5943 45.8971 30.7143 45.1428 30.7143C43.455 30.7193 41.8271 30.0889 40.5828 28.9486C40.0685 28.5029 39.6228 27.9714 39.2799 27.3886C38.6274 26.3264 38.2831 25.1037 38.2857 23.8572C38.2857 23.1029 38.4057 22.3829 38.6285 21.6972C39.0815 20.3281 39.9552 19.1369 41.1249 18.2935C42.2946 17.4501 43.7007 16.9974 45.1428 17C47.1657 17 48.9999 17.8743 50.2342 19.28C51.3314 20.4972 51.9999 22.1086 51.9999 23.8572Z" stroke="white" stroke-width="1.5" stroke-miterlimit="10" stroke-linecap="round" stroke-linejoin="round"/>
</svg>
