<svg width="30" height="29" viewBox="0 0 30 29" fill="none" xmlns="http://www.w3.org/2000/svg">
<ellipse cx="15.1426" cy="14.5" rx="14.8575" ry="14.5" fill="#1B8F7A"/>
<path d="M23.0835 8.24973C22.3476 8.75634 21.5328 9.14381 20.6705 9.39723C20.2076 8.87786 19.5925 8.50975 18.9084 8.34267C18.2242 8.1756 17.5039 8.21763 16.845 8.46307C16.1861 8.70851 15.6203 9.14553 15.2242 9.71502C14.8281 10.2845 14.6207 10.959 14.6301 11.6472V12.3972C13.2796 12.4314 11.9414 12.1391 10.7347 11.5463C9.52795 10.9535 8.49016 10.0787 7.71374 8.99973C7.71374 8.99973 4.63978 15.7497 11.5562 18.7497C9.9735 19.7982 8.08811 20.3239 6.17676 20.2497C13.0932 23.9997 21.5466 20.2497 21.5466 11.6247C21.5458 11.4158 21.5253 11.2074 21.4851 11.0022C22.2694 10.2473 22.8229 9.29426 23.0835 8.24973V8.24973Z" stroke="white" stroke-width="1.5" stroke-linecap="round" stroke-linejoin="round"/>
</svg>
